<mxfile host="65bd71144e" modified="2020-12-06T19:55:01.221Z" agent="5.0 (Windows NT 6.3; Win64; x64) AppleWebKit/537.36 (KHTML, like Gecko) Code/1.51.1 Chrome/83.0.4103.122 Electron/9.3.3 Safari/537.36" etag="k3lbyiaYA-A8adV87snU" version="13.10.0" type="embed" pages="2">
    <diagram id="8_VX8Ra4IixBfOPotnvt" name="Page-2">
        <mxGraphModel dx="840" dy="401" grid="1" gridSize="10" guides="1" tooltips="1" connect="1" arrows="1" fold="1" page="1" pageScale="1" pageWidth="827" pageHeight="1169" math="0" shadow="0">
            <root>
                <mxCell id="0VAPw5uVnjP7SypxiRjC-0"/>
                <mxCell id="0VAPw5uVnjP7SypxiRjC-1" parent="0VAPw5uVnjP7SypxiRjC-0"/>
                <mxCell id="0VAPw5uVnjP7SypxiRjC-9" style="edgeStyle=orthogonalEdgeStyle;rounded=0;orthogonalLoop=1;jettySize=auto;html=1;exitX=0.5;exitY=1;exitDx=0;exitDy=0;entryX=0.5;entryY=0;entryDx=0;entryDy=0;" edge="1" parent="0VAPw5uVnjP7SypxiRjC-1" source="0VAPw5uVnjP7SypxiRjC-2" target="0VAPw5uVnjP7SypxiRjC-4">
                    <mxGeometry relative="1" as="geometry"/>
                </mxCell>
                <mxCell id="0VAPw5uVnjP7SypxiRjC-2" value="&lt;font color=&quot;#000000&quot;&gt;&lt;span style=&quot;background-color: rgb(27 , 161 , 226)&quot;&gt;Front page&lt;br&gt;&lt;/span&gt;&lt;/font&gt;" style="whiteSpace=wrap;html=1;fillColor=#1ba1e2;strokeColor=#006EAF;fontColor=#ffffff;" vertex="1" parent="0VAPw5uVnjP7SypxiRjC-1">
                    <mxGeometry x="360" y="40" width="120" height="60" as="geometry"/>
                </mxCell>
                <mxCell id="0VAPw5uVnjP7SypxiRjC-4" value="&lt;font color=&quot;#000000&quot;&gt;&lt;span style=&quot;background-color: rgb(27 , 161 , 226)&quot;&gt;Registration page&lt;br&gt;&lt;/span&gt;&lt;/font&gt;" style="whiteSpace=wrap;html=1;fillColor=#1ba1e2;strokeColor=#006EAF;fontColor=#ffffff;" vertex="1" parent="0VAPw5uVnjP7SypxiRjC-1">
                    <mxGeometry x="60" y="189" width="120" height="60" as="geometry"/>
                </mxCell>
                <mxCell id="0VAPw5uVnjP7SypxiRjC-5" value="&lt;font color=&quot;#000000&quot;&gt;&lt;span style=&quot;background-color: rgb(27 , 161 , 226)&quot;&gt;User-list page&lt;br&gt;&lt;/span&gt;&lt;/font&gt;" style="whiteSpace=wrap;html=1;fillColor=#1ba1e2;strokeColor=#006EAF;fontColor=#ffffff;" vertex="1" parent="0VAPw5uVnjP7SypxiRjC-1">
                    <mxGeometry x="260" y="189" width="120" height="60" as="geometry"/>
                </mxCell>
                <mxCell id="0VAPw5uVnjP7SypxiRjC-16" style="edgeStyle=none;rounded=0;orthogonalLoop=1;jettySize=auto;html=1;exitX=1;exitY=0.5;exitDx=0;exitDy=0;entryX=0;entryY=0.5;entryDx=0;entryDy=0;" edge="1" parent="0VAPw5uVnjP7SypxiRjC-1" source="0VAPw5uVnjP7SypxiRjC-6" target="0VAPw5uVnjP7SypxiRjC-7">
                    <mxGeometry relative="1" as="geometry"/>
                </mxCell>
                <mxCell id="0VAPw5uVnjP7SypxiRjC-6" value="&lt;font color=&quot;#000000&quot;&gt;&lt;span style=&quot;background-color: rgb(27 , 161 , 226)&quot;&gt;Product-list page&lt;br&gt;&lt;/span&gt;&lt;/font&gt;" style="whiteSpace=wrap;html=1;fillColor=#1ba1e2;strokeColor=#006EAF;fontColor=#ffffff;" vertex="1" parent="0VAPw5uVnjP7SypxiRjC-1">
                    <mxGeometry x="460" y="189" width="120" height="60" as="geometry"/>
                </mxCell>
                <mxCell id="0VAPw5uVnjP7SypxiRjC-7" value="&lt;font color=&quot;#000000&quot;&gt;&lt;span style=&quot;background-color: rgb(27 , 161 , 226)&quot;&gt;Shopping-cart page&lt;br&gt;&lt;/span&gt;&lt;/font&gt;" style="whiteSpace=wrap;html=1;fillColor=#1ba1e2;strokeColor=#006EAF;fontColor=#ffffff;" vertex="1" parent="0VAPw5uVnjP7SypxiRjC-1">
                    <mxGeometry x="660" y="189" width="120" height="60" as="geometry"/>
                </mxCell>
                <mxCell id="0VAPw5uVnjP7SypxiRjC-13" value="&lt;font style=&quot;font-size: 9px&quot;&gt;Available to all users&lt;/font&gt;" style="text;html=1;align=center;verticalAlign=middle;resizable=0;points=[];autosize=1;" vertex="1" parent="0VAPw5uVnjP7SypxiRjC-1">
                    <mxGeometry x="70" y="120" width="100" height="20" as="geometry"/>
                </mxCell>
                <mxCell id="0VAPw5uVnjP7SypxiRjC-14" value="&lt;font style=&quot;font-size: 9px&quot;&gt;User list available to administrator&lt;/font&gt;" style="text;html=1;align=center;verticalAlign=middle;resizable=0;points=[];autosize=1;" vertex="1" parent="0VAPw5uVnjP7SypxiRjC-1">
                    <mxGeometry x="245" y="120" width="150" height="20" as="geometry"/>
                </mxCell>
                <mxCell id="0VAPw5uVnjP7SypxiRjC-15" value="&lt;font style=&quot;font-size: 9px&quot;&gt;Product list available to logged-in users&lt;/font&gt;" style="text;html=1;align=center;verticalAlign=middle;resizable=0;points=[];autosize=1;" vertex="1" parent="0VAPw5uVnjP7SypxiRjC-1">
                    <mxGeometry x="435" y="120" width="170" height="20" as="geometry"/>
                </mxCell>
                <mxCell id="0VAPw5uVnjP7SypxiRjC-17" value="&lt;font style=&quot;font-size: 9px&quot;&gt;Product can be&lt;br&gt;&amp;nbsp;added to the cart&lt;/font&gt;" style="text;html=1;align=center;verticalAlign=middle;resizable=0;points=[];autosize=1;" vertex="1" parent="0VAPw5uVnjP7SypxiRjC-1">
                    <mxGeometry x="572" y="180" width="90" height="40" as="geometry"/>
                </mxCell>
            </root>
        </mxGraphModel>
    </diagram>
    <diagram id="kgpKYQtTHZ0yAKxKKP6v" name="Page-1">
        <mxGraphModel dx="650" dy="297" grid="1" gridSize="10" guides="1" tooltips="1" connect="1" arrows="1" fold="1" page="1" pageScale="1" pageWidth="850" pageHeight="1100" math="0" shadow="0">
            <root>
                <mxCell id="0"/>
                <mxCell id="1" parent="0"/>
                <mxCell id="nOQ_-ACKRYEplVazpKqP-90" value="find(email)" style="html=1;verticalAlign=bottom;endArrow=block;entryX=0.48;entryY=0.79;entryDx=0;entryDy=0;entryPerimeter=0;" parent="1" source="nOQ_-ACKRYEplVazpKqP-36" target="nOQ_-ACKRYEplVazpKqP-48" edge="1">
                    <mxGeometry width="80" relative="1" as="geometry">
                        <mxPoint x="2370" y="919.5" as="sourcePoint"/>
                        <mxPoint x="2450" y="919.5" as="targetPoint"/>
                    </mxGeometry>
                </mxCell>
                <mxCell id="3nuBFxr9cyL0pnOWT2aG-1" value="Webpage&#10;(Client)" style="shape=umlLifeline;perimeter=lifelinePerimeter;container=1;collapsible=0;recursiveResize=0;rounded=0;shadow=0;strokeWidth=1;" parent="1" vertex="1">
                    <mxGeometry x="220" y="440" width="100" height="300" as="geometry"/>
                </mxCell>
                <mxCell id="nOQ_-ACKRYEplVazpKqP-8" value="send given user details to server" style="html=1;verticalAlign=bottom;endArrow=block;" parent="3nuBFxr9cyL0pnOWT2aG-1" target="3nuBFxr9cyL0pnOWT2aG-5" edge="1">
                    <mxGeometry width="80" relative="1" as="geometry">
                        <mxPoint x="50" y="110" as="sourcePoint"/>
                        <mxPoint x="130" y="110" as="targetPoint"/>
                    </mxGeometry>
                </mxCell>
                <mxCell id="3nuBFxr9cyL0pnOWT2aG-5" value="Server" style="shape=umlLifeline;perimeter=lifelinePerimeter;container=1;collapsible=0;recursiveResize=0;rounded=0;shadow=0;strokeWidth=1;" parent="1" vertex="1">
                    <mxGeometry x="420" y="440" width="100" height="300" as="geometry"/>
                </mxCell>
                <mxCell id="nOQ_-ACKRYEplVazpKqP-16" value="create user" style="html=1;verticalAlign=bottom;endArrow=block;" parent="3nuBFxr9cyL0pnOWT2aG-5" target="SXvCzZ8Amg8NsQMC8TH4-1" edge="1">
                    <mxGeometry width="80" relative="1" as="geometry">
                        <mxPoint x="50" y="160" as="sourcePoint"/>
                        <mxPoint x="130" y="160" as="targetPoint"/>
                    </mxGeometry>
                </mxCell>
                <mxCell id="3nuBFxr9cyL0pnOWT2aG-7" value="return" style="verticalAlign=bottom;endArrow=open;dashed=1;endSize=8;exitX=0;exitY=0.95;shadow=0;strokeWidth=1;" parent="1" source="3nuBFxr9cyL0pnOWT2aG-6" target="3nuBFxr9cyL0pnOWT2aG-2" edge="1">
                    <mxGeometry relative="1" as="geometry">
                        <mxPoint x="255" y="486" as="targetPoint"/>
                    </mxGeometry>
                </mxCell>
                <mxCell id="3nuBFxr9cyL0pnOWT2aG-8" value="dispatch" style="verticalAlign=bottom;endArrow=block;entryX=0;entryY=0;shadow=0;strokeWidth=1;" parent="1" source="3nuBFxr9cyL0pnOWT2aG-2" target="3nuBFxr9cyL0pnOWT2aG-6" edge="1">
                    <mxGeometry relative="1" as="geometry">
                        <mxPoint x="255" y="410" as="sourcePoint"/>
                    </mxGeometry>
                </mxCell>
                <mxCell id="3nuBFxr9cyL0pnOWT2aG-9" value="callback" style="verticalAlign=bottom;endArrow=block;entryX=1;entryY=0;shadow=0;strokeWidth=1;" parent="1" source="3nuBFxr9cyL0pnOWT2aG-6" target="3nuBFxr9cyL0pnOWT2aG-4" edge="1">
                    <mxGeometry relative="1" as="geometry">
                        <mxPoint x="220" y="450" as="sourcePoint"/>
                    </mxGeometry>
                </mxCell>
                <mxCell id="3nuBFxr9cyL0pnOWT2aG-10" value="return" style="verticalAlign=bottom;endArrow=open;dashed=1;endSize=8;exitX=1;exitY=0.95;shadow=0;strokeWidth=1;" parent="1" source="3nuBFxr9cyL0pnOWT2aG-4" target="3nuBFxr9cyL0pnOWT2aG-6" edge="1">
                    <mxGeometry relative="1" as="geometry">
                        <mxPoint x="220" y="507" as="targetPoint"/>
                    </mxGeometry>
                </mxCell>
                <mxCell id="SXvCzZ8Amg8NsQMC8TH4-1" value="MongoDB &#10;database&#10;" style="shape=umlLifeline;perimeter=lifelinePerimeter;container=1;collapsible=0;recursiveResize=0;rounded=0;shadow=0;strokeWidth=1;size=40;" parent="1" vertex="1">
                    <mxGeometry x="640" y="440" width="100" height="300" as="geometry"/>
                </mxCell>
                <mxCell id="nOQ_-ACKRYEplVazpKqP-9" value="verify email does not exist" style="html=1;verticalAlign=bottom;endArrow=block;" parent="SXvCzZ8Amg8NsQMC8TH4-1" source="3nuBFxr9cyL0pnOWT2aG-5" edge="1">
                    <mxGeometry width="80" relative="1" as="geometry">
                        <mxPoint x="-110" y="120" as="sourcePoint"/>
                        <mxPoint x="50" y="120" as="targetPoint"/>
                    </mxGeometry>
                </mxCell>
                <mxCell id="nOQ_-ACKRYEplVazpKqP-1" value="Actor" style="shape=umlActor;verticalLabelPosition=bottom;verticalAlign=top;html=1;outlineConnect=0;" parent="1" vertex="1">
                    <mxGeometry x="80" y="430" width="30" height="60" as="geometry"/>
                </mxCell>
                <mxCell id="nOQ_-ACKRYEplVazpKqP-2" value="" style="endArrow=none;dashed=1;html=1;" parent="1" target="nOQ_-ACKRYEplVazpKqP-1" edge="1">
                    <mxGeometry width="50" height="50" relative="1" as="geometry">
                        <mxPoint x="95" y="740" as="sourcePoint"/>
                        <mxPoint x="450" y="400" as="targetPoint"/>
                    </mxGeometry>
                </mxCell>
                <mxCell id="nOQ_-ACKRYEplVazpKqP-4" value="" style="endArrow=classic;html=1;" parent="1" target="3nuBFxr9cyL0pnOWT2aG-1" edge="1">
                    <mxGeometry width="50" height="50" relative="1" as="geometry">
                        <mxPoint x="100" y="540" as="sourcePoint"/>
                        <mxPoint x="240" y="540" as="targetPoint"/>
                    </mxGeometry>
                </mxCell>
                <mxCell id="nOQ_-ACKRYEplVazpKqP-5" value="click register button" style="edgeLabel;html=1;align=center;verticalAlign=middle;resizable=0;points=[];" parent="nOQ_-ACKRYEplVazpKqP-4" vertex="1" connectable="0">
                    <mxGeometry x="-0.1622" y="1" relative="1" as="geometry">
                        <mxPoint x="9" y="-9" as="offset"/>
                    </mxGeometry>
                </mxCell>
                <mxCell id="3nuBFxr9cyL0pnOWT2aG-4" value="" style="points=[];perimeter=orthogonalPerimeter;rounded=0;shadow=0;strokeWidth=1;" parent="1" vertex="1">
                    <mxGeometry x="240" y="1100" width="10" height="80" as="geometry"/>
                </mxCell>
                <mxCell id="SXvCzZ8Amg8NsQMC8TH4-2" value="" style="points=[];perimeter=orthogonalPerimeter;rounded=0;shadow=0;strokeWidth=1;" parent="1" vertex="1">
                    <mxGeometry x="630" y="1050" width="10" height="160" as="geometry"/>
                </mxCell>
                <mxCell id="nOQ_-ACKRYEplVazpKqP-14" value="email ok" style="html=1;verticalAlign=bottom;endArrow=open;dashed=1;endSize=8;" parent="1" target="3nuBFxr9cyL0pnOWT2aG-5" edge="1">
                    <mxGeometry relative="1" as="geometry">
                        <mxPoint x="690" y="580" as="sourcePoint"/>
                        <mxPoint x="610" y="580" as="targetPoint"/>
                    </mxGeometry>
                </mxCell>
                <mxCell id="3nuBFxr9cyL0pnOWT2aG-6" value="" style="points=[];perimeter=orthogonalPerimeter;rounded=0;shadow=0;strokeWidth=1;" parent="1" vertex="1">
                    <mxGeometry x="460" y="1050" width="10" height="160" as="geometry"/>
                </mxCell>
                <mxCell id="3nuBFxr9cyL0pnOWT2aG-2" value="" style="points=[];perimeter=orthogonalPerimeter;rounded=0;shadow=0;strokeWidth=1;" parent="1" vertex="1">
                    <mxGeometry x="220" y="1050" width="10" height="190" as="geometry"/>
                </mxCell>
                <mxCell id="nOQ_-ACKRYEplVazpKqP-17" value="register.html&#10;(Client)" style="shape=umlLifeline;perimeter=lifelinePerimeter;container=1;collapsible=0;recursiveResize=0;rounded=0;shadow=0;strokeWidth=1;" parent="1" vertex="1">
                    <mxGeometry x="960" y="440" width="100" height="600" as="geometry"/>
                </mxCell>
                <mxCell id="nOQ_-ACKRYEplVazpKqP-19" value="index.js &#10;(Server)" style="shape=umlLifeline;perimeter=lifelinePerimeter;container=1;collapsible=0;recursiveResize=0;rounded=0;shadow=0;strokeWidth=1;" parent="1" vertex="1">
                    <mxGeometry x="1590" y="440" width="100" height="610" as="geometry"/>
                </mxCell>
                <mxCell id="nOQ_-ACKRYEplVazpKqP-25" value="" style="endArrow=classic;html=1;" parent="1" source="nOQ_-ACKRYEplVazpKqP-62" edge="1">
                    <mxGeometry width="50" height="50" relative="1" as="geometry">
                        <mxPoint x="840" y="520" as="sourcePoint"/>
                        <mxPoint x="1008" y="526" as="targetPoint"/>
                    </mxGeometry>
                </mxCell>
                <mxCell id="nOQ_-ACKRYEplVazpKqP-26" value="click &quot;Register&quot; button" style="edgeLabel;html=1;align=center;verticalAlign=middle;resizable=0;points=[];" parent="nOQ_-ACKRYEplVazpKqP-25" vertex="1" connectable="0">
                    <mxGeometry x="-0.1622" y="1" relative="1" as="geometry">
                        <mxPoint x="9" y="-9" as="offset"/>
                    </mxGeometry>
                </mxCell>
                <mxCell id="nOQ_-ACKRYEplVazpKqP-28" value="VIEW" style="text;html=1;align=center;verticalAlign=middle;resizable=0;points=[];autosize=1;" parent="1" vertex="1">
                    <mxGeometry x="985" y="380" width="50" height="20" as="geometry"/>
                </mxCell>
                <mxCell id="nOQ_-ACKRYEplVazpKqP-29" value="register.js&#10;(Client)" style="shape=umlLifeline;perimeter=lifelinePerimeter;container=1;collapsible=0;recursiveResize=0;rounded=0;shadow=0;strokeWidth=1;" parent="1" vertex="1">
                    <mxGeometry x="1160" y="440" width="100" height="600" as="geometry"/>
                </mxCell>
                <mxCell id="nOQ_-ACKRYEplVazpKqP-32" value="postOrPutJSON(url, method, userData)" style="html=1;verticalAlign=bottom;endArrow=block;" parent="nOQ_-ACKRYEplVazpKqP-29" target="nOQ_-ACKRYEplVazpKqP-31" edge="1">
                    <mxGeometry width="80" relative="1" as="geometry">
                        <mxPoint x="50" y="110" as="sourcePoint"/>
                        <mxPoint x="130" y="110" as="targetPoint"/>
                    </mxGeometry>
                </mxCell>
                <mxCell id="nOQ_-ACKRYEplVazpKqP-31" value="utils.js&#10;(Client)" style="shape=umlLifeline;perimeter=lifelinePerimeter;container=1;collapsible=0;recursiveResize=0;rounded=0;shadow=0;strokeWidth=1;" parent="1" vertex="1">
                    <mxGeometry x="1390" y="440" width="100" height="610" as="geometry"/>
                </mxCell>
                <mxCell id="nOQ_-ACKRYEplVazpKqP-33" value="fetch(method:POST, ..., body: userData)&amp;nbsp;" style="html=1;verticalAlign=bottom;endArrow=block;" parent="nOQ_-ACKRYEplVazpKqP-31" target="nOQ_-ACKRYEplVazpKqP-19" edge="1">
                    <mxGeometry width="80" relative="1" as="geometry">
                        <mxPoint x="50" y="120" as="sourcePoint"/>
                        <mxPoint x="130" y="120" as="targetPoint"/>
                    </mxGeometry>
                </mxCell>
                <mxCell id="nOQ_-ACKRYEplVazpKqP-30" value="submitNewUserHandler(event)&amp;nbsp;" style="html=1;verticalAlign=bottom;endArrow=block;" parent="1" target="nOQ_-ACKRYEplVazpKqP-29" edge="1">
                    <mxGeometry width="80" relative="1" as="geometry">
                        <mxPoint x="1020" y="543" as="sourcePoint"/>
                        <mxPoint x="1140" y="540" as="targetPoint"/>
                    </mxGeometry>
                </mxCell>
                <mxCell id="nOQ_-ACKRYEplVazpKqP-34" value="routes.js &#10;(Server)" style="shape=umlLifeline;perimeter=lifelinePerimeter;container=1;collapsible=0;recursiveResize=0;rounded=0;shadow=0;strokeWidth=1;" parent="1" vertex="1">
                    <mxGeometry x="1800" y="440" width="100" height="610" as="geometry"/>
                </mxCell>
                <mxCell id="nOQ_-ACKRYEplVazpKqP-37" value="routeToUserRegister(request, response)" style="html=1;verticalAlign=bottom;endArrow=block;" parent="nOQ_-ACKRYEplVazpKqP-34" edge="1">
                    <mxGeometry width="80" relative="1" as="geometry">
                        <mxPoint x="50" y="130" as="sourcePoint"/>
                        <mxPoint x="240" y="130" as="targetPoint"/>
                    </mxGeometry>
                </mxCell>
                <mxCell id="nOQ_-ACKRYEplVazpKqP-36" value="users.js &#10;(Server)" style="shape=umlLifeline;perimeter=lifelinePerimeter;container=1;collapsible=0;recursiveResize=0;rounded=0;shadow=0;strokeWidth=1;" parent="1" vertex="1">
                    <mxGeometry x="2000" y="440" width="100" height="610" as="geometry"/>
                </mxCell>
                <mxCell id="nOQ_-ACKRYEplVazpKqP-44" value="isJson(request)" style="html=1;verticalAlign=bottom;endArrow=block;" parent="nOQ_-ACKRYEplVazpKqP-36" target="nOQ_-ACKRYEplVazpKqP-43" edge="1">
                    <mxGeometry width="80" relative="1" as="geometry">
                        <mxPoint x="50" y="140" as="sourcePoint"/>
                        <mxPoint x="130" y="140" as="targetPoint"/>
                    </mxGeometry>
                </mxCell>
                <mxCell id="nOQ_-ACKRYEplVazpKqP-88" value="registerUser(response, userData)" style="edgeStyle=orthogonalEdgeStyle;html=1;align=left;spacingLeft=2;endArrow=block;rounded=0;entryX=1;entryY=0;" parent="nOQ_-ACKRYEplVazpKqP-36" target="nOQ_-ACKRYEplVazpKqP-87" edge="1">
                    <mxGeometry relative="1" as="geometry">
                        <mxPoint x="50" y="440" as="sourcePoint"/>
                        <Array as="points">
                            <mxPoint x="75" y="440"/>
                        </Array>
                    </mxGeometry>
                </mxCell>
                <mxCell id="nOQ_-ACKRYEplVazpKqP-87" value="" style="html=1;points=[];perimeter=orthogonalPerimeter;" parent="nOQ_-ACKRYEplVazpKqP-36" vertex="1">
                    <mxGeometry x="45" y="460" width="15" height="40" as="geometry"/>
                </mxCell>
                <mxCell id="nOQ_-ACKRYEplVazpKqP-35" value="requestHandler(request, response)" style="html=1;verticalAlign=bottom;endArrow=block;" parent="1" target="nOQ_-ACKRYEplVazpKqP-34" edge="1">
                    <mxGeometry width="80" relative="1" as="geometry">
                        <mxPoint x="1650" y="565" as="sourcePoint"/>
                        <mxPoint x="1720" y="560" as="targetPoint"/>
                    </mxGeometry>
                </mxCell>
                <mxCell id="nOQ_-ACKRYEplVazpKqP-38" value="CONTROLLER" style="text;html=1;align=center;verticalAlign=middle;resizable=0;points=[];autosize=1;" parent="1" vertex="1">
                    <mxGeometry x="2000" y="380" width="100" height="20" as="geometry"/>
                </mxCell>
                <mxCell id="nOQ_-ACKRYEplVazpKqP-41" value="Alternative" style="shape=umlFrame;whiteSpace=wrap;html=1;width=70;height=40;" parent="1" vertex="1">
                    <mxGeometry x="400" y="170" width="320" height="200" as="geometry"/>
                </mxCell>
                <mxCell id="nOQ_-ACKRYEplVazpKqP-43" value="requestUtils.js &#10;(Server)" style="shape=umlLifeline;perimeter=lifelinePerimeter;container=1;collapsible=0;recursiveResize=0;rounded=0;shadow=0;strokeWidth=1;" parent="1" vertex="1">
                    <mxGeometry x="2200" y="440" width="100" height="600" as="geometry"/>
                </mxCell>
                <mxCell id="nOQ_-ACKRYEplVazpKqP-46" value="responseUtils.js &#10;(Server)" style="shape=umlLifeline;perimeter=lifelinePerimeter;container=1;collapsible=0;recursiveResize=0;rounded=0;shadow=0;strokeWidth=1;" parent="1" vertex="1">
                    <mxGeometry x="2400" y="440" width="100" height="610" as="geometry"/>
                </mxCell>
                <mxCell id="nOQ_-ACKRYEplVazpKqP-73" value="sendJson(response, { error: errorMsg }, 400)" style="edgeStyle=orthogonalEdgeStyle;html=1;align=left;spacingLeft=2;endArrow=block;rounded=0;entryX=1;entryY=0;" parent="nOQ_-ACKRYEplVazpKqP-46" target="nOQ_-ACKRYEplVazpKqP-72" edge="1">
                    <mxGeometry relative="1" as="geometry">
                        <mxPoint x="50" y="210" as="sourcePoint"/>
                        <Array as="points">
                            <mxPoint x="75" y="210"/>
                        </Array>
                    </mxGeometry>
                </mxCell>
                <mxCell id="nOQ_-ACKRYEplVazpKqP-75" value="" style="html=1;points=[];perimeter=orthogonalPerimeter;" parent="nOQ_-ACKRYEplVazpKqP-46" vertex="1">
                    <mxGeometry x="45" y="180" width="10" height="100" as="geometry"/>
                </mxCell>
                <mxCell id="nOQ_-ACKRYEplVazpKqP-72" value="" style="html=1;points=[];perimeter=orthogonalPerimeter;" parent="nOQ_-ACKRYEplVazpKqP-46" vertex="1">
                    <mxGeometry x="45" y="230" width="15" height="40" as="geometry"/>
                </mxCell>
                <mxCell id="nOQ_-ACKRYEplVazpKqP-48" value="user.js &#10;(Server)" style="shape=umlLifeline;perimeter=lifelinePerimeter;container=1;collapsible=0;recursiveResize=0;rounded=0;shadow=0;strokeWidth=1;" parent="1" vertex="1">
                    <mxGeometry x="2600" y="440" width="100" height="610" as="geometry"/>
                </mxCell>
                <mxCell id="nOQ_-ACKRYEplVazpKqP-91" value="users.find(email)" style="html=1;verticalAlign=bottom;endArrow=block;" parent="nOQ_-ACKRYEplVazpKqP-48" target="nOQ_-ACKRYEplVazpKqP-56" edge="1">
                    <mxGeometry width="80" relative="1" as="geometry">
                        <mxPoint x="50" y="490" as="sourcePoint"/>
                        <mxPoint x="130" y="490" as="targetPoint"/>
                    </mxGeometry>
                </mxCell>
                <mxCell id="nOQ_-ACKRYEplVazpKqP-49" value="responseUtils.badReques(res, msg)" style="html=1;verticalAlign=bottom;endArrow=block;" parent="1" source="nOQ_-ACKRYEplVazpKqP-36" edge="1">
                    <mxGeometry width="80" relative="1" as="geometry">
                        <mxPoint x="2250" y="630" as="sourcePoint"/>
                        <mxPoint x="2450" y="630.5" as="targetPoint"/>
                    </mxGeometry>
                </mxCell>
                <mxCell id="nOQ_-ACKRYEplVazpKqP-52" value="return false" style="html=1;verticalAlign=bottom;endArrow=open;dashed=1;endSize=8;" parent="1" source="nOQ_-ACKRYEplVazpKqP-43" edge="1">
                    <mxGeometry relative="1" as="geometry">
                        <mxPoint x="2250" y="600" as="sourcePoint"/>
                        <mxPoint x="2060" y="654" as="targetPoint"/>
                    </mxGeometry>
                </mxCell>
                <mxCell id="nOQ_-ACKRYEplVazpKqP-54" value="If request content type &lt;br&gt;is not application/json" style="text;html=1;align=center;verticalAlign=middle;resizable=0;points=[];autosize=1;" parent="1" vertex="1">
                    <mxGeometry x="1050" y="590" width="130" height="30" as="geometry"/>
                </mxCell>
                <mxCell id="nOQ_-ACKRYEplVazpKqP-56" value="MongoDB&#10;(database)" style="shape=umlLifeline;perimeter=lifelinePerimeter;container=1;collapsible=0;recursiveResize=0;rounded=0;shadow=0;strokeWidth=1;" parent="1" vertex="1">
                    <mxGeometry x="2800" y="440" width="100" height="610" as="geometry"/>
                </mxCell>
                <mxCell id="nOQ_-ACKRYEplVazpKqP-57" value="response.end(JSON.stringify(payload)" style="html=1;verticalAlign=bottom;endArrow=open;dashed=1;endSize=8;" parent="1" target="nOQ_-ACKRYEplVazpKqP-31" edge="1">
                    <mxGeometry relative="1" as="geometry">
                        <mxPoint x="2440" y="699" as="sourcePoint"/>
                        <mxPoint x="2370" y="650" as="targetPoint"/>
                    </mxGeometry>
                </mxCell>
                <mxCell id="nOQ_-ACKRYEplVazpKqP-58" value="return response" style="html=1;verticalAlign=bottom;endArrow=open;dashed=1;endSize=8;" parent="1" edge="1">
                    <mxGeometry relative="1" as="geometry">
                        <mxPoint x="1430" y="710" as="sourcePoint"/>
                        <mxPoint x="1210" y="710" as="targetPoint"/>
                    </mxGeometry>
                </mxCell>
                <mxCell id="nOQ_-ACKRYEplVazpKqP-59" value="createNotification&lt;br&gt;(response.error, notificationContainer, false);" style="html=1;verticalAlign=bottom;endArrow=block;" parent="1" target="nOQ_-ACKRYEplVazpKqP-31" edge="1">
                    <mxGeometry x="0.0025" width="80" relative="1" as="geometry">
                        <mxPoint x="1220" y="744" as="sourcePoint"/>
                        <mxPoint x="1330" y="680" as="targetPoint"/>
                        <mxPoint as="offset"/>
                    </mxGeometry>
                </mxCell>
                <mxCell id="nOQ_-ACKRYEplVazpKqP-60" value="MODEL" style="text;html=1;align=center;verticalAlign=middle;resizable=0;points=[];autosize=1;" parent="1" vertex="1">
                    <mxGeometry x="2620" y="380" width="60" height="20" as="geometry"/>
                </mxCell>
                <mxCell id="nOQ_-ACKRYEplVazpKqP-61" value="append html-document with temporary warning &quot;Bad Request&quot;" style="html=1;verticalAlign=bottom;endArrow=open;dashed=1;endSize=8;" parent="1" target="nOQ_-ACKRYEplVazpKqP-17" edge="1">
                    <mxGeometry relative="1" as="geometry">
                        <mxPoint x="1430" y="769" as="sourcePoint"/>
                        <mxPoint x="890" y="730" as="targetPoint"/>
                    </mxGeometry>
                </mxCell>
                <mxCell id="nOQ_-ACKRYEplVazpKqP-62" value="" style="shape=umlLifeline;participant=umlActor;perimeter=lifelinePerimeter;whiteSpace=wrap;html=1;container=1;collapsible=0;recursiveResize=0;verticalAlign=top;spacingTop=36;outlineConnect=0;" parent="1" vertex="1">
                    <mxGeometry x="820" y="440" width="20" height="600" as="geometry"/>
                </mxCell>
                <mxCell id="nOQ_-ACKRYEplVazpKqP-77" value="parseBodyJson(request)" style="html=1;verticalAlign=bottom;endArrow=block;" parent="1" target="nOQ_-ACKRYEplVazpKqP-43" edge="1">
                    <mxGeometry width="80" relative="1" as="geometry">
                        <mxPoint x="2060" y="841" as="sourcePoint"/>
                        <mxPoint x="2130" y="850" as="targetPoint"/>
                    </mxGeometry>
                </mxCell>
                <mxCell id="nOQ_-ACKRYEplVazpKqP-89" value="" style="html=1;points=[];perimeter=orthogonalPerimeter;" parent="1" vertex="1">
                    <mxGeometry x="2045" y="540" width="10" height="470" as="geometry"/>
                </mxCell>
                <mxCell id="nOQ_-ACKRYEplVazpKqP-47" value="opt" style="shape=umlFrame;whiteSpace=wrap;html=1;" parent="1" vertex="1">
                    <mxGeometry x="985" y="590" width="1750" height="210" as="geometry"/>
                </mxCell>
                <mxCell id="nOQ_-ACKRYEplVazpKqP-78" value="return JSON data as userData" style="html=1;verticalAlign=bottom;endArrow=open;dashed=1;endSize=8;" parent="1" target="nOQ_-ACKRYEplVazpKqP-36" edge="1">
                    <mxGeometry relative="1" as="geometry">
                        <mxPoint x="2250" y="860" as="sourcePoint"/>
                        <mxPoint x="2170" y="860" as="targetPoint"/>
                    </mxGeometry>
                </mxCell>
                <mxCell id="nOQ_-ACKRYEplVazpKqP-55" value="return true" style="html=1;verticalAlign=bottom;endArrow=open;dashed=1;endSize=8;" parent="1" target="nOQ_-ACKRYEplVazpKqP-36" edge="1">
                    <mxGeometry relative="1" as="geometry">
                        <mxPoint x="2250" y="820" as="sourcePoint"/>
                        <mxPoint x="2060" y="960" as="targetPoint"/>
                    </mxGeometry>
                </mxCell>
                <mxCell id="HreHPi5UpyVrHctkIqnN-1" value="return mongoose document object&amp;nbsp;" style="html=1;verticalAlign=bottom;endArrow=open;dashed=1;endSize=8;" parent="1" target="nOQ_-ACKRYEplVazpKqP-48" edge="1">
                    <mxGeometry relative="1" as="geometry">
                        <mxPoint x="2850" y="950" as="sourcePoint"/>
                        <mxPoint x="2770" y="950" as="targetPoint"/>
                    </mxGeometry>
                </mxCell>
            </root>
        </mxGraphModel>
    </diagram>
</mxfile>